<?xml version="1.0" encoding="utf-8"?>
<!-- Generated by IcoMoon.io -->
<!DOCTYPE svg PUBLIC "-//W3C//DTD SVG 1.1//EN" "http://www.w3.org/Graphics/SVG/1.1/DTD/svg11.dtd">

<svg version="1.1" xmlns="http://www.w3.org/2000/svg" xmlns:xlink="http://www.w3.org/1999/xlink" width="396" height="32" viewBox="0 0 396 32">
<defs>
<g id="icon-phone">
	<path class="path1" d="M17.966 17.966c-2.533 2.534-5.467 4.957-6.627 3.795-1.661-1.659-2.683-3.106-6.344-0.165s-0.85 4.902 0.76 6.512c1.856 1.854 8.774 0.098 15.614-6.741 6.837-6.838 8.597-13.758 6.739-15.614-1.608-1.61-3.568-4.419-6.51-0.76s-1.496 4.683 0.165 6.344c1.157 1.162-1.264 4.094-3.797 6.629z" />
</g>
<g id="icon-mail">
	<path class="path1" d="M2.55 8.458c0.781 0.421 11.598 6.23 12.002 6.446 0.402 0.216 0.923 0.32 1.448 0.32 0.526 0 1.048-0.104 1.45-0.322 0.403-0.216 11.219-6.026 12-6.446 0.782-0.419 1.522-1.736 0.086-1.736h-27.070c-1.435 0-0.698 1.317 0.085 1.738zM29.781 11.658c-0.888 0.464-11.787 6.162-12.331 6.446s-0.923 0.322-1.45 0.322c-0.525 0-0.904-0.037-1.448-0.322s-11.445-5.984-12.331-6.446c-0.626-0.326-0.621 0.056-0.621 0.35 0 0.294 0 11.736 0 11.736 0 0.672 0.894 1.536 1.587 1.536h25.627c0.694 0 1.586-0.864 1.586-1.534 0 0 0-11.442 0-11.736 0-0.296 0.006-0.678-0.619-0.352z" />
</g>
<g id="icon-twitter">
	<path class="path1" d="M30.72 6.869c-1.085 0.482-2.248 0.805-3.47 0.952 1.248-0.747 2.206-1.931 2.656-3.341-1.166 0.691-2.459 1.195-3.834 1.466-1.102-1.174-2.672-1.907-4.41-1.907-3.336 0-6.040 2.704-6.040 6.038 0 0.474 0.053 0.934 0.157 1.376-5.019-0.251-9.47-2.656-12.448-6.31-0.522 0.891-0.821 1.93-0.821 3.037 0 2.096 1.067 3.944 2.688 5.027-0.99-0.032-1.922-0.302-2.736-0.755 0 0.026 0 0.050 0 0.075 0 2.926 2.083 5.366 4.845 5.923-0.506 0.138-1.040 0.211-1.592 0.211-0.389 0-0.766-0.037-1.136-0.107 0.768 2.4 3 4.146 5.642 4.194-2.067 1.621-4.67 2.586-7.501 2.586-0.488 0-0.968-0.029-1.44-0.085 2.672 1.714 5.846 2.714 9.259 2.714 11.109 0 17.184-9.203 17.184-17.186 0-0.261-0.005-0.522-0.018-0.781 1.181-0.851 2.203-1.915 3.014-3.126z" />
</g>
<g id="icon-facebook">
	<path class="path1" d="M24 6.606h-4.57c-0.541 0-1.144 0.71-1.144 1.662v3.299h5.714v4.704h-5.714v14.128h-5.395v-14.126h-4.891v-4.706h4.891v-2.768c0-3.97 2.755-7.2 6.538-7.2h4.571v5.006z" />
</g>
<g id="icon-googleplus">
	<path class="path1" d="M3.184 8.942c0 2.389 0.798 4.115 2.371 5.128 1.288 0.83 2.784 0.955 3.562 0.955 0.189 0 0.339-0.008 0.445-0.014 0 0-0.246 1.605 0.944 3.194l-0.054-0.002c-2.062 0-8.79 0.432-8.79 5.963 0 5.627 6.179 5.912 7.418 5.912 0.098 0 0.154-0.002 0.154-0.002 0.014 0 0.102 0.003 0.253 0.003 0.795 0 2.851-0.099 4.762-1.029 2.477-1.202 3.734-3.294 3.734-6.216 0-2.824-1.914-4.504-3.312-5.733-0.853-0.749-1.59-1.395-1.59-2.024 0-0.64 0.538-1.122 1.219-1.731 1.101-0.986 2.141-2.389 2.141-5.042 0-2.333-0.302-3.898-2.166-4.89 0.195-0.099 0.882-0.171 1.222-0.219 1.010-0.138 2.486-0.294 2.486-1.118v-0.158h-7.357c-0.074 0.002-7.44 0.275-7.44 7.022zM15.061 23.363c0.141 2.25-1.784 3.91-4.674 4.12-2.934 0.216-5.352-1.106-5.493-3.355-0.067-1.080 0.406-2.138 1.336-2.981 0.944-0.853 2.237-1.379 3.646-1.485 0.166-0.010 0.331-0.018 0.496-0.018 2.715 0 4.555 1.597 4.688 3.718zM13.139 7.402c0.722 2.539-0.368 5.194-2.104 5.683-0.2 0.056-0.406 0.085-0.614 0.085-1.592 0-3.168-1.61-3.752-3.827-0.326-1.246-0.301-2.334 0.074-3.382 0.368-1.029 1.029-1.726 1.861-1.96 0.2-0.058 0.408-0.085 0.616-0.085 1.92 0 3.155 0.797 3.92 3.486zM25.538 12.931v-4.8h-3.040v4.8h-4.8v3.040h4.8v4.8h3.040v-4.8h4.8v-3.040h-4.8z" />
</g>
<g id="icon-pinterest">
	<path class="path1" d="M13.786 21.165c-0.84 4.405-1.866 8.629-4.906 10.835-0.938-6.659 1.378-11.659 2.453-16.968-1.834-3.088 0.221-9.299 4.090-7.768 4.76 1.883-4.122 11.477 1.84 12.675 6.226 1.251 8.766-10.8 4.907-14.718-5.578-5.661-16.237-0.131-14.925 7.97 0.318 1.981 2.365 2.582 0.818 5.315-3.57-0.79-4.635-3.606-4.498-7.36 0.221-6.142 5.52-10.443 10.835-11.038 6.723-0.754 13.032 2.467 13.901 8.79 0.981 7.136-3.032 14.866-10.222 14.309-1.947-0.149-2.765-1.114-4.293-2.042z" />
</g>
<g id="icon-linkedin">
	<path class="path1" d="M8.122 4.88c0 1.701-1.256 3.078-3.322 3.078-1.944 0-3.2-1.378-3.2-3.078 0-1.741 1.298-3.078 3.282-3.078s3.2 1.338 3.24 3.078zM1.763 30.198v-19.808h6.157v19.808h-6.157zM11.605 16.709c0-2.47-0.082-4.536-0.163-6.318h5.347l0.285 2.755h0.122c0.81-1.298 2.795-3.2 6.117-3.2 4.050 0 7.088 2.714 7.088 8.547v11.707h-6.157v-10.978c0-2.552-0.893-4.294-3.12-4.294-1.701 0-2.712 1.174-3.158 2.309-0.163 0.405-0.203 0.971-0.203 1.539v11.424h-6.157v-13.491z" />
</g>
<g id="icon-instagram">
	<path class="path1" d="M24.32 16c0 4.595-3.726 8.32-8.32 8.32-4.595 0-8.32-3.725-8.32-8.32 0-0.547 0.054-1.082 0.157-1.6h-5.597v11.059c0 2.374 1.923 4.301 4.301 4.301h18.918c2.374 0 4.301-1.925 4.301-4.301v-11.059h-5.595c0.101 0.518 0.155 1.053 0.155 1.6zM25.459 2.24h-18.918c-2.376 0-4.301 1.926-4.301 4.301v4.659h6.966c1.506-2.128 3.987-3.52 6.794-3.52s5.288 1.392 6.794 3.52h6.966v-4.659c0-2.374-1.926-4.301-4.301-4.301zM27.563 7.552c0 0.424-0.346 0.768-0.768 0.768h-2.302c-0.422 0-0.768-0.346-0.768-0.768v-2.304c0-0.424 0.347-0.768 0.768-0.768h2.302c0.424 0 0.768 0.346 0.768 0.768v2.304zM21.12 16c0-2.829-2.293-5.12-5.12-5.12s-5.12 2.291-5.12 5.12 2.293 5.12 5.12 5.12 5.12-2.291 5.12-5.12z" />
</g>
</defs>

<g fill="#333333">
	<use xlink:href="#icon-phone" transform="translate(0 0)"></use>
	<use xlink:href="#icon-mail" transform="translate(52 0)"></use>
	<use xlink:href="#icon-twitter" transform="translate(104 0)"></use>
	<use xlink:href="#icon-facebook" transform="translate(156 0)"></use>
	<use xlink:href="#icon-googleplus" transform="translate(208 0)"></use>
	<use xlink:href="#icon-pinterest" transform="translate(260 0)"></use>
	<use xlink:href="#icon-linkedin" transform="translate(312 0)"></use>
	<use xlink:href="#icon-instagram" transform="translate(364 0)"></use>
</g>

</svg>
